<?xml version="1.0"?>
<svg xmlns="http://www.w3.org/2000/svg" xmlns:xlink="http://www.w3.org/1999/xlink" xmlns:svgjs="http://svgjs.com/svgjs" version="1.1" width="512" height="512" x="0" y="0" viewBox="0 0 480 480" style="enable-background:new 0 0 512 512" xml:space="preserve" class=""><g><path xmlns="http://www.w3.org/2000/svg" d="m440 40h-400v208h136c4.417969 0 8 3.582031 8 8v24h256" fill="#1687fb" data-original="#20b2ad" style="" class=""/><path xmlns="http://www.w3.org/2000/svg" d="m456 8h-432c-8.835938 0-16 7.164062-16 16v32c0 8.835938 7.164062 16 16 16h16v-32h400v32h16c8.835938 0 16-7.164062 16-16v-32c0-8.835938-7.164062-16-16-16zm0 0" fill="#48bc53" data-original="#ff7f00" style="" class=""/><path xmlns="http://www.w3.org/2000/svg" d="m256 336c0 8.835938-7.164062 16-16 16s-16-7.164062-16-16 7.164062-16 16-16 16 7.164062 16 16zm0 0" fill="#f1f1f1" data-original="#ffd700" style="" class=""/><path xmlns="http://www.w3.org/2000/svg" d="m384 195.039062v-59.039062c0-35.347656-28.652344-64-64-64s-64 28.652344-64 64v59.039062" fill="#48bc53" data-original="#ff7f00" style="" class=""/><path xmlns="http://www.w3.org/2000/svg" d="m280 184h80c17.671875 0 32 14.328125 32 32v64h-144v-64c0-17.671875 14.328125-32 32-32zm0 0" fill="#9fd3ff" data-original="#800080" style="" class=""/><path xmlns="http://www.w3.org/2000/svg" d="m320 224-24-40h48zm0 0" fill="#f1f1f1" data-original="#ffd700" style="" class=""/><path xmlns="http://www.w3.org/2000/svg" d="m288 120h64v32c0 17.671875-14.328125 32-32 32s-32-14.328125-32-32zm0 0" fill="#f1f1f1" data-original="#ffd700" style="" class=""/><path xmlns="http://www.w3.org/2000/svg" d="m40 72h168v112c0 8.835938-7.164062 16-16 16h-152zm0 0" fill="#f1f1f1" data-original="#ffd700" style="" class=""/><path xmlns="http://www.w3.org/2000/svg" d="m72 104h32v32h-32zm0 0" fill="#9fd3ff" data-original="#800080" style="" class=""/><path xmlns="http://www.w3.org/2000/svg" d="m120 360h56c4.417969 0 8-3.582031 8-8v-96c0-4.417969-3.582031-8-8-8h-160c-4.417969 0-8 3.582031-8 8v96c0 4.417969 3.582031 8 8 8h40" fill="#f1f1f1" data-original="#ffd700" style="" class=""/><path xmlns="http://www.w3.org/2000/svg" d="m120 360c0 17.671875-14.328125 32-32 32s-32-14.328125-32-32 14.328125-32 32-32 32 14.328125 32 32zm0 0" fill="#48bc53" data-original="#ff7f00" style="" class=""/><path xmlns="http://www.w3.org/2000/svg" d="m56 392h64c8.835938 0 16 7.164062 16 16v64h-96v-64c0-8.835938 7.164062-16 16-16zm0 0" fill="#48bc53" data-original="#ff7f00" style="" class=""/><path xmlns="http://www.w3.org/2000/svg" d="m152 296c0 8.835938-7.164062 16-16 16s-16-7.164062-16-16 7.164062-16 16-16 16 7.164062 16 16zm0 0" fill="#9fd3ff" data-original="#800080" style="" class=""/><path xmlns="http://www.w3.org/2000/svg" d="m352 384c0 17.671875-14.328125 32-32 32s-32-14.328125-32-32 14.328125-32 32-32 32 14.328125 32 32zm0 0" fill="#48bc53" data-original="#ff7f00" style="" class=""/><path xmlns="http://www.w3.org/2000/svg" d="m352 416h-64c-8.835938 0-16 7.164062-16 16v40h96v-40c0-8.835938-7.164062-16-16-16zm0 0" fill="#48bc53" data-original="#ff7f00" style="" class=""/><path xmlns="http://www.w3.org/2000/svg" d="m440 312h-112c-4.417969 0-8 3.582031-8 8v32c13.339844-.046875 25.296875 8.214844 29.972656 20.703125 4.675782 12.492187 1.078125 26.574219-9.011718 35.296875h107.039062v-88c0-4.417969-3.582031-8-8-8zm0 0" fill="#1687fb" data-original="#20b2ad" style="" class=""/><path xmlns="http://www.w3.org/2000/svg" d="m416 360c0 8.835938-7.164062 16-16 16s-16-7.164062-16-16 7.164062-16 16-16 16 7.164062 16 16zm0 0" fill="#48bc53" data-original="#ff7f00" style="" class=""/><path xmlns="http://www.w3.org/2000/svg" d="m340.960938 408c-5.507813 4.851562-12.53125 7.636719-19.863282 7.886719v.113281h30.902344c8.835938 0 16 7.164062 16 16v8h72c17.671875 0 32-14.328125 32-32zm0 0" fill="#f1f1f1" data-original="#ffd700" style="" class=""/><g xmlns="http://www.w3.org/2000/svg" fill="#006"><path d="m72 144h32c4.417969 0 8-3.582031 8-8s-3.582031-8-8-8h-24v-16h24c4.417969 0 8-3.582031 8-8s-3.582031-8-8-8h-32c-4.417969 0-8 3.582031-8 8v32c0 4.417969 3.582031 8 8 8zm0 0" fill="#000066" data-original="#000066" style="" class=""/><path d="m136 112h40c4.417969 0 8-3.582031 8-8s-3.582031-8-8-8h-40c-4.417969 0-8 3.582031-8 8s3.582031 8 8 8zm0 0" fill="#000066" data-original="#000066" style="" class=""/><path d="m136 144h40c4.417969 0 8-3.582031 8-8s-3.582031-8-8-8h-40c-4.417969 0-8 3.582031-8 8s3.582031 8 8 8zm0 0" fill="#000066" data-original="#000066" style="" class=""/><path d="m72 176h56c4.417969 0 8-3.582031 8-8s-3.582031-8-8-8h-56c-4.417969 0-8 3.582031-8 8s3.582031 8 8 8zm0 0" fill="#000066" data-original="#000066" style="" class=""/><path d="m176 160h-16c-4.417969 0-8 3.582031-8 8s3.582031 8 8 8h16c4.417969 0 8-3.582031 8-8s-3.582031-8-8-8zm0 0" fill="#000066" data-original="#000066" style="" class=""/><path d="m456 0h-432c-13.253906 0-24 10.746094-24 24v32c0 13.253906 10.746094 24 24 24h8v120c0 4.417969 3.582031 8 8 8h152c13.253906 0 24-10.746094 24-24v-112c0-4.417969-3.582031-8-8-8h-160v-16h384v24c0 4.417969 3.582031 8 8 8h16c13.253906 0 24-10.746094 24-24v-32c0-13.253906-10.746094-24-24-24zm-256 184c0 4.417969-3.582031 8-8 8h-144v-112h152zm264-128c0 4.417969-3.582031 8-8 8h-8v-24c0-4.417969-3.582031-8-8-8h-400c-4.417969 0-8 3.582031-8 8v24h-8c-4.417969 0-8-3.582031-8-8v-32c0-4.417969 3.582031-8 8-8h432c4.417969 0 8 3.582031 8 8zm0 0" fill="#000066" data-original="#000066" style="" class=""/><path d="m248 313.472656v-25.472656h216c4.417969 0 8-3.582031 8-8s-3.582031-8-8-8h-96v-32c0-4.417969-3.582031-8-8-8s-8 3.582031-8 8v32h-64v-32c0-4.417969-3.582031-8-8-8s-8 3.582031-8 8v32h-16v-56c0-13.253906 10.746094-24 24-24h11.472656l20.527344 34.214844v21.785156c0 4.417969 3.582031 8 8 8s8-3.582031 8-8v-24c0-1.453125-.394531-2.875-1.144531-4.121094l-16.726563-27.878906h49.871094c13.253906 0 24 10.746094 24 24v24c0 4.417969 3.582031 8 8 8s8-3.582031 8-8v-24c-.027344-8.574219-2.832031-16.910156-8-23.753906v-56.246094c0-39.765625-32.234375-72-72-72s-72 32.234375-72 72v56.246094c-5.167969 6.84375-7.972656 15.179687-8 23.753906v56h-24c-4.417969 0-8 3.582031-8 8s3.582031 8 8 8h16v25.472656c-11.019531 3.894532-17.632812 15.164063-15.65625 26.683594 1.976562 11.523438 11.96875 19.941406 23.65625 19.941406s21.679688-8.417968 23.65625-19.941406c1.976562-11.519531-4.636719-22.789062-15.65625-26.683594zm48-161.472656v-24h48v24c0 13.253906-10.746094 24-24 24s-24-10.746094-24-24zm24-72c30.914062.035156 55.964844 25.085938 56 56v43.390625c-5.039062-2.230469-10.488281-3.386719-16-3.390625h-8.207031c5.292969-6.882812 8.175781-15.316406 8.207031-24v-32c0-4.417969-3.582031-8-8-8h-64c-4.417969 0-8 3.582031-8 8v32c.03125 8.683594 2.914062 17.117188 8.207031 24h-8.207031c-5.511719.003906-10.960938 1.160156-16 3.390625v-43.390625c.035156-30.914062 25.085938-55.964844 56-56zm-80 264c-4.417969 0-8-3.582031-8-8s3.582031-8 8-8 8 3.582031 8 8-3.582031 8-8 8zm0 0" fill="#000066" data-original="#000066" style="" class=""/><path d="m184 248c0-4.417969-3.582031-8-8-8h-160c-4.417969 0-8 3.582031-8 8s3.582031 8 8 8h160c4.417969 0 8-3.582031 8-8zm0 0" fill="#000066" data-original="#000066" style="" class=""/><path d="m56 272c-13.253906 0-24 10.746094-24 24v8c0 4.417969 3.582031 8 8 8s8-3.582031 8-8v-8c0-4.417969 3.582031-8 8-8h8c4.417969 0 8-3.582031 8-8s-3.582031-8-8-8zm0 0" fill="#000066" data-original="#000066" style="" class=""/><path d="m184 384h-16v-16h8c4.417969 0 8-3.582031 8-8s-3.582031-8-8-8h-48.800781c-3.785157-18.644531-20.175781-32.039062-39.199219-32.039062s-35.414062 13.394531-39.199219 32.039062h-32.800781c-4.417969 0-8 3.582031-8 8s3.582031 8 8 8v16h-8c-4.417969 0-8 3.582031-8 8s3.582031 8 8 8h25.472656c-.949218 2.5625-1.445312 5.269531-1.472656 8v64c0 4.417969 3.582031 8 8 8s8-3.582031 8-8v-64c0-4.417969 3.582031-8 8-8h64c4.417969 0 8 3.582031 8 8v64c0 4.417969 3.582031 8 8 8s8-3.582031 8-8v-64c-.027344-2.730469-.523438-5.4375-1.472656-8h41.472656c4.417969 0 8-3.582031 8-8s-3.582031-8-8-8zm-96-48c13.253906 0 24 10.746094 24 24s-10.746094 24-24 24-24-10.746094-24-24 10.746094-24 24-24zm-56 48v-16h16.800781c1.234375 5.820312 3.761719 11.289062 7.398438 16zm87.792969 0c3.636719-4.710938 6.164062-10.179688 7.398437-16h24.808594v16zm0 0" fill="#000066" data-original="#000066" style="" class=""/><path d="m352 408h-.207031c5.292969-6.882812 8.175781-15.316406 8.207031-24 0-22.089844-17.910156-40-40-40s-40 17.910156-40 40c.03125 8.683594 2.914062 17.117188 8.207031 24h-.207031c-13.253906 0-24 10.746094-24 24v40c0 4.417969 3.582031 8 8 8s8-3.582031 8-8v-40c0-4.417969 3.582031-8 8-8h64c4.417969 0 8 3.582031 8 8v40c0 4.417969 3.582031 8 8 8s8-3.582031 8-8v-40c0-13.253906-10.746094-24-24-24zm-56-24c0-13.253906 10.746094-24 24-24s24 10.746094 24 24-10.746094 24-24 24-24-10.746094-24-24zm0 0" fill="#000066" data-original="#000066" style="" class=""/><path d="m472 400h-16v-80c0-8.835938-7.164062-16-16-16h-112c-4.417969 0-8 3.582031-8 8s3.582031 8 8 8h112v80h-51.039062c-4.417969 0-8 3.582031-8 8s3.582031 8 8 8h73.671874c-3.402343 9.582031-12.464843 15.988281-22.632812 16h-40c-4.417969 0-8 3.582031-8 8s3.582031 8 8 8h40c22.082031-.027344 39.972656-17.917969 40-40 0-4.417969-3.582031-8-8-8zm0 0" fill="#000066" data-original="#000066" style="" class=""/><path d="m392 360c0-4.417969 3.582031-8 8-8s8 3.582031 8 8-3.582031 8-8 8-8 3.582031-8 8 3.582031 8 8 8c13.253906 0 24-10.746094 24-24s-10.746094-24-24-24-24 10.746094-24 24c0 4.417969 3.582031 8 8 8s8-3.582031 8-8zm0 0" fill="#000066" data-original="#000066" style="" class=""/></g></g></svg>
