<?xml version="1.0" encoding="iso-8859-1"?>
<!-- Generator: Adobe Illustrator 19.0.0, SVG Export Plug-In . SVG Version: 6.00 Build 0)  -->
<svg version="1.1" id="Capa_1" xmlns="http://www.w3.org/2000/svg" xmlns:xlink="http://www.w3.org/1999/xlink" x="0px" y="0px"
	 viewBox="0 0 479.96 479.96" style="enable-background:new 0 0 479.96 479.96;" xml:space="preserve">
<path style="fill:#2488FF;" d="M39.98,7.96v464h208v-464H39.98z M143.98,375.96c-8.837,0-16-7.163-16-16s7.163-16,16-16
	s16,7.163,16,16S152.817,375.96,143.98,375.96z M143.98,311.96c-8.837,0-16-7.163-16-16s7.163-16,16-16s16,7.163,16,16
	S152.817,311.96,143.98,311.96z M215.98,87.96h-144v-32h144V87.96z"/>
<g>
	<circle style="fill:#E0E0E2;" cx="143.98" cy="295.96" r="16"/>
	<circle style="fill:#E0E0E2;" cx="143.98" cy="359.96" r="16"/>
	<path style="fill:#E0E0E2;" d="M247.98,471.96l192-64v-336l-192-64V471.96z"/>
	<path style="fill:#E0E0E2;" d="M71.98,55.96h144v32h-144V55.96z"/>
</g>
<g>
	<path style="fill:#231F20;" d="M71.98,127.96h144v16h-144V127.96z"/>
	<path style="fill:#231F20;" d="M71.98,159.96h144v16h-144V159.96z"/>
	<path style="fill:#231F20;" d="M143.98,319.96c-13.255,0-24-10.745-24-24s10.745-24,24-24s24,10.745,24,24
		S157.235,319.96,143.98,319.96z M143.98,287.96c-4.418,0-8,3.582-8,8s3.582,8,8,8s8-3.582,8-8S148.398,287.96,143.98,287.96z"/>
	<path style="fill:#231F20;" d="M143.98,383.96c-13.255,0-24-10.745-24-24s10.745-24,24-24s24,10.745,24,24
		S157.235,383.96,143.98,383.96z M143.98,351.96c-4.418,0-8,3.582-8,8s3.582,8,8,8s8-3.582,8-8S148.398,351.96,143.98,351.96z"/>
	<path style="fill:#231F20;" d="M71.98,407.96h16v32h-16V407.96z"/>
	<path style="fill:#231F20;" d="M103.98,407.96h16v32h-16V407.96z"/>
	<path style="fill:#231F20;" d="M135.98,407.96h16v32h-16V407.96z"/>
	<path style="fill:#231F20;" d="M167.98,407.96h16v32h-16V407.96z"/>
	<path style="fill:#231F20;" d="M199.98,407.96h16v32h-16V407.96z"/>
	<path style="fill:#231F20;" d="M442.508,64.376l-192-64c-0.754-0.247-1.542-0.374-2.336-0.376c-0.064,0-0.12,0-0.192,0h-208
		c-4.403,0-7.978,3.557-8,7.96v464c0,4.418,3.582,8,8,8h208c0.86,0,1.714-0.14,2.528-0.416l192-64
		c3.266-1.088,5.469-4.142,5.472-7.584v-336C447.977,68.518,445.774,65.464,442.508,64.376L442.508,64.376z M47.98,15.96h192v448
		h-192V15.96z M431.98,402.192l-176,58.664V19.064l176,58.664V402.192z"/>
	<path style="fill:#231F20;" d="M215.98,95.96h-144c-4.418,0-8-3.582-8-8v-32c0-4.418,3.582-8,8-8h144c4.418,0,8,3.582,8,8v32
		C223.98,92.378,220.398,95.96,215.98,95.96z M79.98,79.96h128v-16h-128V79.96z"/>
</g>
<g>
</g>
<g>
</g>
<g>
</g>
<g>
</g>
<g>
</g>
<g>
</g>
<g>
</g>
<g>
</g>
<g>
</g>
<g>
</g>
<g>
</g>
<g>
</g>
<g>
</g>
<g>
</g>
<g>
</g>
</svg>
