<?xml version="1.0"?>
<svg xmlns="http://www.w3.org/2000/svg" xmlns:xlink="http://www.w3.org/1999/xlink" xmlns:svgjs="http://svgjs.com/svgjs" version="1.1" width="512" height="512" x="0" y="0" viewBox="0 0 512 512" style="enable-background:new 0 0 512 512" xml:space="preserve" class=""><g transform="matrix(1,0,0,1,0,0)"><g xmlns="http://www.w3.org/2000/svg"><g><path d="m504.5 106c0-16.5-13.5-30-30-30h-437c-3.503 0-6.868.614-10 1.73l-5 343.27 480.27-5c1.116-3.132 1.73-6.497 1.73-10z" fill="#0080ff" data-original="#b9c3cd" style="" class=""/><path d="m27.5 401v-323.27c-11.621 4.142-20 15.273-20 28.27v300c0 16.5 13.5 30 30 30h437c12.997 0 24.127-8.379 28.27-20h-460.27c-8.25 0-15-6.75-15-15z" fill="#0080ff" data-original="#909ba6" style="" class=""/><path d="m126 293.93c0 3.432-2.322 6.437-5.652 7.27-6.253 1.564-17.387 3.68-31.848 3.68s-25.595-2.116-31.848-3.68c-3.33-.833-5.652-3.837-5.652-7.27v-23.1c0-3.433 2.322-6.437 5.652-7.27 6.253-1.564 17.387-3.68 31.848-3.68s25.595 2.116 31.848 3.68c3.33.833 5.652 3.837 5.652 7.27z" fill="#0080ff" data-original="#909ba6" style="" class=""/><path d="m130.346 248.56c-6.253-1.564-17.386-3.68-31.846-3.68-8.876 0-16.49.798-22.5 1.775l-5 27.902c.043.015 12.499 5.323 35.4 5.323 21.24 0 29.6-11.776 29.6-11.776v-12.274c0-3.434-2.323-6.437-5.654-7.27z" fill="#9ec8fc" data-original="#9ec8fc" style="" class=""/><path d="m78.722 267.414c-1.611-.464-2.722-1.93-2.722-3.607v-17.152c-3.782.615-6.933 1.3-9.348 1.905-3.33.833-5.652 3.837-5.652 7.27v23.101c0 3.433 2.323 6.437 5.654 7.27 6.253 1.564 17.386 3.68 31.846 3.68s25.593-2.116 31.846-3.68c3.331-.833 5.654-3.837 5.654-7.27v-10.826c-6.01.977-13.624 1.776-22.5 1.776-17.104-.001-29.554-.962-34.778-2.467z" fill="#023993" data-original="#7398d4" style="" class=""/><path d="m231 323.93c0 3.432-2.322 6.437-5.652 7.27-6.253 1.564-17.387 3.68-31.848 3.68s-25.595-2.116-31.848-3.68c-3.33-.833-5.652-3.837-5.652-7.27v-23.1c0-3.433 2.322-6.437 5.652-7.27 6.253-1.564 17.387-3.68 31.848-3.68s25.595 2.116 31.848 3.68c3.33.833 5.652 3.837 5.652 7.27z" fill="#0080ff" data-original="#909ba6" style="" class=""/><path d="m235.346 278.56c-6.253-1.564-17.386-3.68-31.846-3.68-8.876 0-16.49.798-22.5 1.775l-5 27.902c.043.015 12.499 5.323 35.4 5.323 21.24 0 29.6-11.776 29.6-11.776v-12.274c0-3.434-2.323-6.437-5.654-7.27z" fill="#9ec8fc" data-original="#9ec8fc" style="" class=""/><path d="m183.722 297.414c-1.611-.464-2.722-1.93-2.722-3.607v-17.152c-3.782.615-6.933 1.301-9.348 1.905-3.33.833-5.652 3.837-5.652 7.27v23.101c0 3.433 2.323 6.437 5.654 7.27 6.253 1.564 17.386 3.68 31.846 3.68s25.593-2.116 31.846-3.68c3.331-.833 5.654-3.837 5.654-7.27v-10.826c-6.01.977-13.624 1.776-22.5 1.776-17.104-.001-29.554-.962-34.778-2.467z" fill="#023993" data-original="#7398d4" style="" class=""/><path d="m336 353.93c0 3.432-2.322 6.437-5.652 7.27-6.253 1.564-17.387 3.68-31.848 3.68s-25.595-2.116-31.848-3.68c-3.33-.833-5.652-3.837-5.652-7.27v-23.1c0-3.433 2.322-6.437 5.652-7.27 6.253-1.564 17.387-3.68 31.848-3.68s25.595 2.116 31.848 3.68c3.33.833 5.652 3.837 5.652 7.27z" fill="#0080ff" data-original="#909ba6" style="" class=""/><path d="m340.346 308.56c-6.253-1.564-17.386-3.68-31.846-3.68-8.876 0-16.49.798-22.5 1.775l-5 27.902c.043.015 12.499 5.323 35.4 5.323 21.24 0 29.6-11.776 29.6-11.776v-12.274c0-3.434-2.323-6.437-5.654-7.27z" fill="#9ec8fc" data-original="#9ec8fc" style="" class=""/><path d="m288.722 327.414c-1.611-.464-2.722-1.93-2.722-3.607v-17.152c-3.782.615-6.933 1.301-9.348 1.905-3.33.833-5.652 3.837-5.652 7.27v23.101c0 3.433 2.323 6.437 5.654 7.27 6.253 1.564 17.386 3.68 31.846 3.68s25.593-2.116 31.846-3.68c3.331-.833 5.654-3.837 5.654-7.27v-10.826c-6.01.977-13.624 1.776-22.5 1.776-17.104-.001-29.554-.962-34.778-2.467z" fill="#023993" data-original="#7398d4" style="" class=""/><path d="m441 323.93c0 3.432-2.322 6.437-5.652 7.27-6.253 1.564-17.387 3.68-31.848 3.68s-25.595-2.116-31.848-3.68c-3.33-.833-5.652-3.837-5.652-7.27v-23.1c0-3.433 2.322-6.437 5.652-7.27 6.253-1.564 17.387-3.68 31.848-3.68s25.595 2.116 31.848 3.68c3.33.833 5.652 3.837 5.652 7.27z" fill="#0080ff" data-original="#909ba6" style="" class=""/><path d="m445.346 278.56c-6.253-1.564-17.386-3.68-31.846-3.68-8.876 0-16.49.798-22.5 1.775l-5 27.902c.043.015 12.499 5.323 35.4 5.323 21.24 0 29.6-11.776 29.6-11.776v-12.274c0-3.434-2.323-6.437-5.654-7.27z" fill="#9ec8fc" data-original="#9ec8fc" style="" class=""/><path d="m393.722 297.414c-1.611-.464-2.722-1.93-2.722-3.607v-17.152c-3.782.615-6.933 1.301-9.348 1.905-3.33.833-5.652 3.837-5.652 7.27v23.101c0 3.433 2.323 6.437 5.654 7.27 6.253 1.564 17.386 3.68 31.846 3.68s25.593-2.116 31.846-3.68c3.331-.833 5.654-3.837 5.654-7.27v-10.826c-6.01.977-13.624 1.776-22.5 1.776-17.104-.001-29.553-.962-34.778-2.467z" fill="#023993" data-original="#7398d4" style="" class=""/><path d="m128.5 121h-57.5l-5 25 70-10v-7.5c0-4.125-3.375-7.5-7.5-7.5z" fill="#e33939" data-original="#ffe07d" style="" class=""/><path d="m71 132.25v-11.25h-2.5c-4.125 0-7.5 3.375-7.5 7.5v15c0 4.125 3.375 7.5 7.5 7.5h60c4.125 0 7.5-3.375 7.5-7.5v-7.5h-61.25c-2.063 0-3.75-1.687-3.75-3.75z" fill="#e92626" data-original="#ffc250" style="" class=""/><path d="m233.5 121h-57.5l-5 25 70-10v-7.5c0-4.125-3.375-7.5-7.5-7.5z" fill="#e33939" data-original="#ffe07d" style="" class=""/><path d="m176 132.25v-11.25h-2.5c-4.125 0-7.5 3.375-7.5 7.5v15c0 4.125 3.375 7.5 7.5 7.5h60c4.125 0 7.5-3.375 7.5-7.5v-7.5h-61.25c-2.063 0-3.75-1.687-3.75-3.75z" fill="#e92626" data-original="#ffc250" style="" class=""/><path d="m338.5 121h-57.5l-5 25 70-10v-7.5c0-4.125-3.375-7.5-7.5-7.5z" fill="#00ff70" data-original="#ff8086" style="" class=""/><path d="m281 132.25v-11.25h-2.5c-4.125 0-7.5 3.375-7.5 7.5v15c0 4.125 3.375 7.5 7.5 7.5h60c4.125 0 7.5-3.375 7.5-7.5v-7.5h-61.25c-2.063 0-3.75-1.687-3.75-3.75z" fill="#00d90e" data-original="#d16161" style="" class=""/><path d="m443.5 121h-57.5l-5 25 70-10v-7.5c0-4.125-3.375-7.5-7.5-7.5z" fill="#00ff70" data-original="#ff8086" style="" class=""/><path d="m386 132.25v-11.25h-2.5c-4.125 0-7.5 3.375-7.5 7.5v15c0 4.125 3.375 7.5 7.5 7.5h60c4.125 0 7.5-3.375 7.5-7.5v-7.5h-61.25c-2.062 0-3.75-1.687-3.75-3.75z" fill="#00d90e" data-original="#d16161" style="" class=""/></g><g><path d="m474.5 443.5h-437c-20.678 0-37.5-16.822-37.5-37.5v-300c0-20.678 16.822-37.5 37.5-37.5h437c20.678 0 37.5 16.822 37.5 37.5v12.818c0 4.142-3.357 7.5-7.5 7.5s-7.5-3.358-7.5-7.5v-12.818c0-12.407-10.094-22.5-22.5-22.5h-437c-12.407 0-22.5 10.093-22.5 22.5v300c0 12.407 10.093 22.5 22.5 22.5h437c12.406 0 22.5-10.093 22.5-22.5v-257.182c0-4.142 3.357-7.5 7.5-7.5s7.5 3.358 7.5 7.5v257.182c0 20.678-16.822 37.5-37.5 37.5zm-61-45c-4.143 0-7.5-3.358-7.5-7.5v-63.801c-11.341-.549-20.288-2.253-26.168-3.724-6.672-1.668-11.332-7.649-11.332-14.545v-23.1c0-6.895 4.66-12.876 11.332-14.545 5.88-1.471 14.827-3.174 26.168-3.724v-56.561c0-4.142 3.357-7.5 7.5-7.5s7.5 3.358 7.5 7.5v56.561c11.341.549 20.288 2.253 26.168 3.724 6.672 1.669 11.332 7.65 11.332 14.545v23.101c0 6.896-4.66 12.877-11.333 14.545-5.879 1.471-14.826 3.174-26.167 3.724v63.8c0 4.142-3.357 7.5-7.5 7.5zm0-116.12c-13.397 0-23.725 1.879-30.028 3.456l.028 23.094c0 .006.001.008.001.008 6.274 1.562 16.602 3.441 29.999 3.441s23.725-1.879 30.028-3.456l-.028-23.093c-6.275-1.571-16.603-3.45-30-3.45zm-105 116.12c-4.143 0-7.5-3.358-7.5-7.5v-33.801c-11.341-.549-20.288-2.253-26.168-3.724-6.672-1.668-11.332-7.649-11.332-14.545v-23.1c0-6.895 4.66-12.876 11.332-14.545 5.88-1.471 14.827-3.174 26.168-3.724v-86.561c0-4.142 3.357-7.5 7.5-7.5s7.5 3.358 7.5 7.5v93.88c0 4.142-3.357 7.5-7.5 7.5-13.397 0-23.725 1.879-30.028 3.456l.028 23.094c6.275 1.57 16.603 3.45 30 3.45s23.725-1.879 30.028-3.456l-.028-23.094c-.436-.109-.931-.229-1.453-.351-4.034-.938-6.544-4.97-5.604-9.004.938-4.035 4.969-6.546 9.005-5.605.606.141 1.18.28 1.72.415 6.673 1.669 11.333 7.65 11.333 14.545v23.101c0 6.896-4.66 12.877-11.333 14.545-5.879 1.471-14.826 3.174-26.167 3.724v33.8c-.001 4.142-3.358 7.5-7.501 7.5zm-105 0c-4.142 0-7.5-3.358-7.5-7.5v-63.801c-11.341-.549-20.288-2.253-26.167-3.724-6.672-1.668-11.333-7.649-11.333-14.545v-23.1c0-6.895 4.66-12.876 11.333-14.545 5.879-1.471 14.827-3.174 26.167-3.724v-56.561c0-4.142 3.358-7.5 7.5-7.5s7.5 3.358 7.5 7.5v56.561c11.341.549 20.288 2.253 26.167 3.724 6.672 1.669 11.333 7.65 11.333 14.545v23.101c0 6.896-4.661 12.877-11.333 14.545-5.878 1.471-14.826 3.174-26.167 3.724v63.8c0 4.142-3.358 7.5-7.5 7.5zm0-116.12c-13.398 0-23.724 1.879-30.028 3.456l.028 23.094c6.276 1.57 16.602 3.45 30 3.45s23.724-1.879 30.028-3.456l-.028.006v-23.1c-6.276-1.571-16.602-3.45-30-3.45zm-105 116.12c-4.142 0-7.5-3.358-7.5-7.5v-93.801c-11.341-.549-20.288-2.253-26.167-3.724-6.672-1.668-11.333-7.649-11.333-14.545v-23.1c0-6.895 4.66-12.876 11.333-14.545 5.879-1.471 14.827-3.174 26.167-3.724v-26.561c0-4.142 3.358-7.5 7.5-7.5s7.5 3.358 7.5 7.5v26.561c11.341.549 20.288 2.253 26.167 3.724 6.672 1.669 11.333 7.65 11.333 14.545v23.101c0 6.896-4.661 12.877-11.333 14.545-5.878 1.471-14.826 3.174-26.167 3.724v93.8c0 4.142-3.358 7.5-7.5 7.5zm0-146.12c-13.398 0-23.724 1.879-30.028 3.456l.028 23.094c6.276 1.57 16.602 3.45 30 3.45s23.724-1.879 30.028-3.456l-.028-23.094c0-.006 0-.008 0-.008-6.276-1.563-16.602-3.442-30-3.442zm345-93.88h-60c-8.271 0-15-6.729-15-15v-15c0-8.271 6.729-15 15-15h60c8.271 0 15 6.729 15 15v15c0 8.271-6.729 15-15 15zm-60-30v15h60v-15zm-45 30h-60c-8.271 0-15-6.729-15-15v-15c0-8.271 6.729-15 15-15h60c8.271 0 15 6.729 15 15v15c0 8.271-6.729 15-15 15zm-60-30v15h60v-15zm-45 30h-60c-8.271 0-15-6.729-15-15v-15c0-8.271 6.729-15 15-15h60c8.271 0 15 6.729 15 15v15c0 8.271-6.729 15-15 15zm-60-30v15h60v-15zm-45 30h-60c-8.271 0-15-6.729-15-15v-15c0-8.271 6.729-15 15-15h60c8.271 0 15 6.729 15 15v15c0 8.271-6.729 15-15 15zm-60-30v15h60v-15z" fill="#000000" data-original="#000000" style="" class=""/></g></g></g></svg>
